<svg
  xmlns="http://www.w3.org/2000/svg"
  width="46.105"
  height="46.103"
  viewBox="0 0 46.105 46.103"
>
  <path
    id="Shape_1"
    data-name="Shape 1"
    d="M413.676,39.157q-1.1,0-1.094,2.027v3.744c.013.216.042.413.042.644,0,.31-.026.583-.042.872v3.3a4.121,4.121,0,0,0,.227,1.533.873.873,0,0,0,.893.547.785.785,0,0,0,.827-.587,5.96,5.96,0,0,0,.187-1.706V41.238a4.941,4.941,0,0,0-.187-1.547A.8.8,0,0,0,413.676,39.157Zm-5.879-4.84a1,1,0,0,0-.254-.72.926.926,0,0,0-.706-.267,1.024,1.024,0,0,0-.8.294,1.145,1.145,0,0,0-.268.8,3.332,3.332,0,0,0,1.281,2.32l.784.753V35.891h-.011Zm1.7-14.869A23.051,23.051,0,1,0,432.552,42.5,23.053,23.053,0,0,0,409.5,19.448Zm9.937,29.016a21.545,21.545,0,0,1-.267,3.747A4.287,4.287,0,0,1,418,54.558a3.771,3.771,0,0,1-2.748.894,3.439,3.439,0,0,1-2.666-.987v4.667h-4.747V52.407c-.185.012-.35.045-.545.045q-3.12,0-4.507-1.547T401.4,45.918v-2.24H405.9v2.854q0,1.707,1.093,1.706a.954.954,0,0,0,.839-.347V44.858c0-.014-.007-.033-.011-.047a4.063,4.063,0,0,0-.681-1.227q-.414-.493-1.479-1.534l-1.974-1.973a6.811,6.811,0,0,1-2.293-4.961,6.577,6.577,0,0,1,1.347-4.466,4.954,4.954,0,0,1,3.934-1.534q3.092,0,4.454,1.64t1.359,5.134h-.01l.029.943a3.606,3.606,0,0,1,2.872-1.33,3.356,3.356,0,0,1,3.16,1.52,8.338,8.338,0,0,1,.894,4.213Z"
    transform="translate(-386.448 -19.449)"
    fill="#1a1a1a"
  ></path>
</svg>